<?xml version="1.0" encoding="iso-8859-1"?>
<!-- Generator: Adobe Illustrator 19.0.0, SVG Export Plug-In . SVG Version: 6.00 Build 0)  -->
<svg version="1.1" id="Layer_1" xmlns="http://www.w3.org/2000/svg" xmlns:xlink="http://www.w3.org/1999/xlink" x="0px" y="0px"
	 viewBox="0 0 290 290" style="enable-background:new 0 0 290 290;" xml:space="preserve">
<g>
	<g>
		<g>
			<path d="M145,0C65.047,0,0,65.047,0,145s65.047,145,145,145s145-65.047,145-145S224.953,0,145,0z M145,280
				c-74.44,0-135-60.561-135-135S70.56,10,145,10s135,60.561,135,135S219.439,280,145,280z"/>
			<path d="M145,20.861c-2.761,0-5,2.239-5,5c0,2.761,2.239,5,5,5c62.936,0,114.14,51.203,114.14,114.139c0,2.761,2.238,5,5,5
				c2.762,0,5-2.239,5-5C269.14,76.549,213.451,20.861,145,20.861z"/>
			<path d="M145,41.005C87.657,41.005,41.005,87.657,41.005,145S87.657,248.995,145,248.995S248.995,202.343,248.995,145
				C248.995,87.657,202.343,41.005,145,41.005z M145,238.995c-51.829,0-93.995-42.166-93.995-93.995S93.171,51.005,145,51.005
				c51.829,0,93.995,42.166,93.995,93.995S196.829,238.995,145,238.995z"/>
			<path d="M193.434,140H164.91c-1.839-7.315-7.595-13.072-14.91-14.91V80.222c0-2.761-2.238-5-5-5c-2.761,0-5,2.239-5,5v44.867
				c-8.919,2.242-15.551,10.306-15.551,19.91c0,11.332,9.219,20.551,20.551,20.551c9.605,0,17.668-6.632,19.91-15.551h28.524
				c2.762,0,5-2.239,5-5C198.434,142.238,196.195,140,193.434,140z M145,155.551c-5.818,0-10.551-4.733-10.551-10.551
				s4.733-10.551,10.551-10.551c5.817,0,10.551,4.733,10.551,10.551S150.817,155.551,145,155.551z"/>
		</g>
	</g>
</g>
<g>
</g>
<g>
</g>
<g>
</g>
<g>
</g>
<g>
</g>
<g>
</g>
<g>
</g>
<g>
</g>
<g>
</g>
<g>
</g>
<g>
</g>
<g>
</g>
<g>
</g>
<g>
</g>
<g>
</g>
</svg>
